<mxfile host="app.diagrams.net" modified="2023-04-06T06:01:24.840Z" agent="Mozilla/5.0 (Windows NT 10.0; Win64; x64) AppleWebKit/537.36 (KHTML, like Gecko) Chrome/111.0.0.0 Safari/537.36 Edg/111.0.1661.62" etag="Pk7TH2a9J4whDKFx3AhG" version="21.1.4" type="device">
  <diagram name="Trang-1" id="v3Xizklyut8XAG99eU9T">
    <mxGraphModel dx="1050" dy="-628" grid="1" gridSize="10" guides="1" tooltips="1" connect="1" arrows="1" fold="1" page="1" pageScale="1" pageWidth="827" pageHeight="1169" math="0" shadow="0">
      <root>
        <mxCell id="0" />
        <mxCell id="1" parent="0" />
        <mxCell id="RzwdxOm5NsNBJei7Lg1E-1" value="Begin&lt;br&gt;&amp;nbsp; &amp;nbsp; Input Diem&lt;br&gt;&amp;nbsp; &amp;nbsp; &amp;nbsp; &amp;nbsp; &amp;nbsp;If Diem &amp;gt;= 75 then&lt;br&gt;&amp;nbsp; &amp;nbsp; &amp;nbsp; &amp;nbsp; &amp;nbsp; &amp;nbsp; &amp;nbsp; print &#39;&#39;Loai A&#39;&#39;&lt;br&gt;&amp;nbsp; &amp;nbsp; &amp;nbsp; &amp;nbsp; &amp;nbsp;Else&lt;br&gt;&amp;nbsp; &amp;nbsp; &amp;nbsp; &amp;nbsp; &amp;nbsp; &amp;nbsp; &amp;nbsp; If Diem &amp;gt;= 60 then&lt;br&gt;&amp;nbsp; &amp;nbsp; &amp;nbsp; &amp;nbsp; &amp;nbsp; &amp;nbsp; &amp;nbsp; &amp;nbsp; &amp;nbsp; &amp;nbsp;print &#39;&#39;Loai B&#39;&#39;&lt;br&gt;&amp;nbsp; &amp;nbsp; &amp;nbsp; &amp;nbsp; &amp;nbsp; &amp;nbsp; &amp;nbsp; Else&lt;br&gt;&amp;nbsp; &amp;nbsp; &amp;nbsp; &amp;nbsp; &amp;nbsp; &amp;nbsp; &amp;nbsp; &amp;nbsp; &amp;nbsp; If Diem &amp;gt;= 45 then&lt;br&gt;&amp;nbsp; &amp;nbsp; &amp;nbsp; &amp;nbsp; &amp;nbsp; &amp;nbsp; &amp;nbsp; &amp;nbsp; &amp;nbsp; &amp;nbsp;print &#39;&#39;Loai C&#39;&#39;&lt;br&gt;&amp;nbsp; &amp;nbsp; &amp;nbsp; &amp;nbsp; &amp;nbsp; &amp;nbsp; &amp;nbsp; &amp;nbsp;Else&lt;br&gt;&amp;nbsp; &amp;nbsp; &amp;nbsp; &amp;nbsp; &amp;nbsp; &amp;nbsp; &amp;nbsp; &amp;nbsp; &amp;nbsp; If Diem &amp;gt;= 35 then&lt;br&gt;&amp;nbsp; &amp;nbsp; &amp;nbsp; &amp;nbsp; &amp;nbsp; &amp;nbsp; &amp;nbsp; &amp;nbsp; &amp;nbsp; &amp;nbsp; &amp;nbsp; &amp;nbsp; print &#39;&#39;Loai D&#39;&#39;&lt;br&gt;&amp;nbsp; &amp;nbsp; &amp;nbsp; &amp;nbsp; &amp;nbsp; &amp;nbsp; &amp;nbsp; &amp;nbsp; &amp;nbsp; Else&lt;br&gt;&amp;nbsp; &amp;nbsp; &amp;nbsp; &amp;nbsp; &amp;nbsp; &amp;nbsp; &amp;nbsp; &amp;nbsp; &amp;nbsp; &amp;nbsp; &amp;nbsp; &amp;nbsp; print &#39;&#39; Loai E&#39;&#39;&lt;br&gt;&amp;nbsp; &amp;nbsp; &amp;nbsp; &amp;nbsp; &amp;nbsp; &amp;nbsp; &amp;nbsp; &amp;nbsp; &amp;nbsp; &amp;nbsp;End If&lt;br&gt;&amp;nbsp; &amp;nbsp; &amp;nbsp; &amp;nbsp; &amp;nbsp; &amp;nbsp; &amp;nbsp; &amp;nbsp;End If&lt;br&gt;&amp;nbsp; &amp;nbsp; &amp;nbsp; &amp;nbsp; &amp;nbsp; &amp;nbsp; &amp;nbsp; End If&lt;br&gt;&amp;nbsp; &amp;nbsp; &amp;nbsp; &amp;nbsp; &amp;nbsp;End if&lt;br&gt;End" style="text;html=1;strokeColor=none;fillColor=none;align=left;verticalAlign=middle;whiteSpace=wrap;rounded=0;" vertex="1" parent="1">
          <mxGeometry x="20" y="1260" width="340" height="180" as="geometry" />
        </mxCell>
        <mxCell id="RzwdxOm5NsNBJei7Lg1E-13" value="" style="edgeStyle=orthogonalEdgeStyle;rounded=0;orthogonalLoop=1;jettySize=auto;html=1;" edge="1" parent="1" source="RzwdxOm5NsNBJei7Lg1E-2" target="RzwdxOm5NsNBJei7Lg1E-3">
          <mxGeometry relative="1" as="geometry" />
        </mxCell>
        <mxCell id="RzwdxOm5NsNBJei7Lg1E-2" value="Begin&amp;nbsp;" style="ellipse;whiteSpace=wrap;html=1;" vertex="1" parent="1">
          <mxGeometry x="380" y="1180" width="100" height="60" as="geometry" />
        </mxCell>
        <mxCell id="RzwdxOm5NsNBJei7Lg1E-14" value="" style="edgeStyle=orthogonalEdgeStyle;rounded=0;orthogonalLoop=1;jettySize=auto;html=1;" edge="1" parent="1" source="RzwdxOm5NsNBJei7Lg1E-3" target="RzwdxOm5NsNBJei7Lg1E-4">
          <mxGeometry relative="1" as="geometry" />
        </mxCell>
        <mxCell id="RzwdxOm5NsNBJei7Lg1E-3" value="Input Diem" style="shape=parallelogram;perimeter=parallelogramPerimeter;whiteSpace=wrap;html=1;fixedSize=1;" vertex="1" parent="1">
          <mxGeometry x="370" y="1280" width="120" height="60" as="geometry" />
        </mxCell>
        <mxCell id="RzwdxOm5NsNBJei7Lg1E-15" value="" style="edgeStyle=orthogonalEdgeStyle;rounded=0;orthogonalLoop=1;jettySize=auto;html=1;" edge="1" parent="1" source="RzwdxOm5NsNBJei7Lg1E-4" target="RzwdxOm5NsNBJei7Lg1E-5">
          <mxGeometry relative="1" as="geometry" />
        </mxCell>
        <mxCell id="RzwdxOm5NsNBJei7Lg1E-16" style="edgeStyle=orthogonalEdgeStyle;rounded=0;orthogonalLoop=1;jettySize=auto;html=1;entryX=0;entryY=0.5;entryDx=0;entryDy=0;" edge="1" parent="1" source="RzwdxOm5NsNBJei7Lg1E-4" target="RzwdxOm5NsNBJei7Lg1E-8">
          <mxGeometry relative="1" as="geometry" />
        </mxCell>
        <mxCell id="RzwdxOm5NsNBJei7Lg1E-4" value="Diem &amp;gt;= 75" style="rhombus;whiteSpace=wrap;html=1;" vertex="1" parent="1">
          <mxGeometry x="380" y="1370" width="100" height="90" as="geometry" />
        </mxCell>
        <mxCell id="RzwdxOm5NsNBJei7Lg1E-17" style="edgeStyle=orthogonalEdgeStyle;rounded=0;orthogonalLoop=1;jettySize=auto;html=1;entryX=0;entryY=0.5;entryDx=0;entryDy=0;" edge="1" parent="1" source="RzwdxOm5NsNBJei7Lg1E-5" target="RzwdxOm5NsNBJei7Lg1E-9">
          <mxGeometry relative="1" as="geometry" />
        </mxCell>
        <mxCell id="RzwdxOm5NsNBJei7Lg1E-18" value="" style="edgeStyle=orthogonalEdgeStyle;rounded=0;orthogonalLoop=1;jettySize=auto;html=1;" edge="1" parent="1" source="RzwdxOm5NsNBJei7Lg1E-5" target="RzwdxOm5NsNBJei7Lg1E-6">
          <mxGeometry relative="1" as="geometry" />
        </mxCell>
        <mxCell id="RzwdxOm5NsNBJei7Lg1E-5" value="Diem &amp;gt;= 65" style="rhombus;whiteSpace=wrap;html=1;" vertex="1" parent="1">
          <mxGeometry x="385" y="1500" width="90" height="80" as="geometry" />
        </mxCell>
        <mxCell id="RzwdxOm5NsNBJei7Lg1E-19" value="" style="edgeStyle=orthogonalEdgeStyle;rounded=0;orthogonalLoop=1;jettySize=auto;html=1;" edge="1" parent="1" source="RzwdxOm5NsNBJei7Lg1E-6" target="RzwdxOm5NsNBJei7Lg1E-7">
          <mxGeometry relative="1" as="geometry" />
        </mxCell>
        <mxCell id="RzwdxOm5NsNBJei7Lg1E-21" style="edgeStyle=orthogonalEdgeStyle;rounded=0;orthogonalLoop=1;jettySize=auto;html=1;entryX=0;entryY=0.5;entryDx=0;entryDy=0;" edge="1" parent="1" source="RzwdxOm5NsNBJei7Lg1E-6" target="RzwdxOm5NsNBJei7Lg1E-10">
          <mxGeometry relative="1" as="geometry" />
        </mxCell>
        <mxCell id="RzwdxOm5NsNBJei7Lg1E-6" value="Diem &amp;gt;= 45" style="rhombus;whiteSpace=wrap;html=1;" vertex="1" parent="1">
          <mxGeometry x="385" y="1620" width="90" height="80" as="geometry" />
        </mxCell>
        <mxCell id="RzwdxOm5NsNBJei7Lg1E-20" style="edgeStyle=orthogonalEdgeStyle;rounded=0;orthogonalLoop=1;jettySize=auto;html=1;entryX=0;entryY=0.5;entryDx=0;entryDy=0;" edge="1" parent="1" source="RzwdxOm5NsNBJei7Lg1E-7" target="RzwdxOm5NsNBJei7Lg1E-11">
          <mxGeometry relative="1" as="geometry" />
        </mxCell>
        <mxCell id="RzwdxOm5NsNBJei7Lg1E-22" value="" style="edgeStyle=orthogonalEdgeStyle;rounded=0;orthogonalLoop=1;jettySize=auto;html=1;" edge="1" parent="1" source="RzwdxOm5NsNBJei7Lg1E-7" target="RzwdxOm5NsNBJei7Lg1E-12">
          <mxGeometry relative="1" as="geometry" />
        </mxCell>
        <mxCell id="RzwdxOm5NsNBJei7Lg1E-7" value="Diem &amp;gt;= 35" style="rhombus;whiteSpace=wrap;html=1;" vertex="1" parent="1">
          <mxGeometry x="385" y="1740" width="90" height="80" as="geometry" />
        </mxCell>
        <mxCell id="RzwdxOm5NsNBJei7Lg1E-28" style="edgeStyle=orthogonalEdgeStyle;rounded=0;orthogonalLoop=1;jettySize=auto;html=1;entryX=1.023;entryY=0.588;entryDx=0;entryDy=0;entryPerimeter=0;" edge="1" parent="1" source="RzwdxOm5NsNBJei7Lg1E-8" target="RzwdxOm5NsNBJei7Lg1E-23">
          <mxGeometry relative="1" as="geometry">
            <Array as="points">
              <mxPoint x="800" y="1415" />
              <mxPoint x="800" y="2080" />
              <mxPoint x="723" y="2080" />
            </Array>
          </mxGeometry>
        </mxCell>
        <mxCell id="RzwdxOm5NsNBJei7Lg1E-8" value="print &#39;&#39;Loai A&#39;&#39;" style="shape=parallelogram;perimeter=parallelogramPerimeter;whiteSpace=wrap;html=1;fixedSize=1;" vertex="1" parent="1">
          <mxGeometry x="600" y="1385" width="120" height="60" as="geometry" />
        </mxCell>
        <mxCell id="RzwdxOm5NsNBJei7Lg1E-27" style="edgeStyle=orthogonalEdgeStyle;rounded=0;orthogonalLoop=1;jettySize=auto;html=1;entryX=1;entryY=0.5;entryDx=0;entryDy=0;" edge="1" parent="1" source="RzwdxOm5NsNBJei7Lg1E-9" target="RzwdxOm5NsNBJei7Lg1E-23">
          <mxGeometry relative="1" as="geometry">
            <Array as="points">
              <mxPoint x="770" y="1540" />
              <mxPoint x="770" y="2080" />
            </Array>
          </mxGeometry>
        </mxCell>
        <mxCell id="RzwdxOm5NsNBJei7Lg1E-9" value="print &#39;&#39;Loai B&#39;&#39;" style="shape=parallelogram;perimeter=parallelogramPerimeter;whiteSpace=wrap;html=1;fixedSize=1;" vertex="1" parent="1">
          <mxGeometry x="600" y="1510" width="120" height="60" as="geometry" />
        </mxCell>
        <mxCell id="RzwdxOm5NsNBJei7Lg1E-26" style="edgeStyle=orthogonalEdgeStyle;rounded=0;orthogonalLoop=1;jettySize=auto;html=1;entryX=1;entryY=0.5;entryDx=0;entryDy=0;" edge="1" parent="1" source="RzwdxOm5NsNBJei7Lg1E-10" target="RzwdxOm5NsNBJei7Lg1E-23">
          <mxGeometry relative="1" as="geometry">
            <Array as="points">
              <mxPoint x="740" y="1660" />
              <mxPoint x="740" y="2080" />
            </Array>
          </mxGeometry>
        </mxCell>
        <mxCell id="RzwdxOm5NsNBJei7Lg1E-10" value="print &#39;&#39;Loai C&#39;&#39;" style="shape=parallelogram;perimeter=parallelogramPerimeter;whiteSpace=wrap;html=1;fixedSize=1;" vertex="1" parent="1">
          <mxGeometry x="600" y="1630" width="120" height="60" as="geometry" />
        </mxCell>
        <mxCell id="RzwdxOm5NsNBJei7Lg1E-25" style="edgeStyle=orthogonalEdgeStyle;rounded=0;orthogonalLoop=1;jettySize=auto;html=1;entryX=0.5;entryY=0;entryDx=0;entryDy=0;" edge="1" parent="1" source="RzwdxOm5NsNBJei7Lg1E-11" target="RzwdxOm5NsNBJei7Lg1E-23">
          <mxGeometry relative="1" as="geometry" />
        </mxCell>
        <mxCell id="RzwdxOm5NsNBJei7Lg1E-11" value="print &#39;&#39;Loai D&#39;&#39;" style="shape=parallelogram;perimeter=parallelogramPerimeter;whiteSpace=wrap;html=1;fixedSize=1;" vertex="1" parent="1">
          <mxGeometry x="600" y="1750" width="120" height="60" as="geometry" />
        </mxCell>
        <mxCell id="RzwdxOm5NsNBJei7Lg1E-24" style="edgeStyle=orthogonalEdgeStyle;rounded=0;orthogonalLoop=1;jettySize=auto;html=1;entryX=0;entryY=0.5;entryDx=0;entryDy=0;" edge="1" parent="1" source="RzwdxOm5NsNBJei7Lg1E-12" target="RzwdxOm5NsNBJei7Lg1E-23">
          <mxGeometry relative="1" as="geometry">
            <Array as="points">
              <mxPoint x="430" y="2000" />
            </Array>
          </mxGeometry>
        </mxCell>
        <mxCell id="RzwdxOm5NsNBJei7Lg1E-12" value="print &#39;&#39;Loai E&#39;&#39;" style="shape=parallelogram;perimeter=parallelogramPerimeter;whiteSpace=wrap;html=1;fixedSize=1;" vertex="1" parent="1">
          <mxGeometry x="370" y="1880" width="120" height="60" as="geometry" />
        </mxCell>
        <mxCell id="RzwdxOm5NsNBJei7Lg1E-23" value="End" style="ellipse;whiteSpace=wrap;html=1;" vertex="1" parent="1">
          <mxGeometry x="600" y="2040" width="120" height="80" as="geometry" />
        </mxCell>
      </root>
    </mxGraphModel>
  </diagram>
</mxfile>
